<svg xmlns="http://www.w3.org/2000/svg" xmlns:xlink="http://www.w3.org/1999/xlink" width="72" height="72" viewBox="0 0 72 72">
  <defs>
    <style>
      .cls-1 {
        stroke: #c1c1c1;
        stroke-width: 2px;
        fill: url(#linear-gradient);
      }

      .cls-2 {
        stroke: none;
      }

      .cls-3 {
        fill: none;
      }
    </style>
    <linearGradient id="linear-gradient" x1="0.153" y1="0.167" x2="0.806" y2="0.833" gradientUnits="objectBoundingBox">
      <stop offset="0" stop-color="#fff"/>
      <stop offset="1" stop-color="#f2f2f2"/>
    </linearGradient>
  </defs>
  <g id="btn_bus_quick_top" transform="translate(-1528 -980)">
    <g id="타원_3" data-name="타원 3" class="cls-1" transform="translate(1528 980)">
      <circle class="cls-2" cx="36" cy="36" r="36"/>
      <circle class="cls-3" cx="36" cy="36" r="35"/>
    </g>
    <path id="합치기_30" data-name="합치기 30" d="M7.4,25.707V5.329L3.182,9.546A1.5,1.5,0,0,1,1.061,7.425L7.425,1.061A1.5,1.5,0,0,1,8.8.656a1.5,1.5,0,0,1,1.379.405l6.364,6.364a1.5,1.5,0,0,1-2.121,2.121L10.4,5.521V25.707a1.5,1.5,0,1,1-3,0Z" transform="translate(1555.378 1002.378)"/>
  </g>
</svg>
